<svg width="24" height="25" viewBox="0 0 24 25" fill="none" xmlns="http://www.w3.org/2000/svg">
<path d="M17 2.74072H7C4.23858 2.74072 2 4.9793 2 7.74072V17.7407C2 20.5021 4.23858 22.7407 7 22.7407H17C19.7614 22.7407 22 20.5021 22 17.7407V7.74072C22 4.9793 19.7614 2.74072 17 2.74072Z" stroke="#00A5A0" stroke-width="2" stroke-linecap="round" stroke-linejoin="round"/>
<path d="M16.0002 12.1107C16.1236 12.943 15.9815 13.7929 15.594 14.5397C15.2065 15.2865 14.5933 15.8921 13.8418 16.2704C13.0903 16.6487 12.2386 16.7803 11.408 16.6467C10.5773 16.513 9.80996 16.1208 9.21503 15.5259C8.62011 14.931 8.22793 14.1636 8.09426 13.3329C7.9606 12.5023 8.09226 11.6506 8.47052 10.8991C8.84878 10.1476 9.45438 9.53446 10.2012 9.14696C10.948 8.75946 11.7979 8.61731 12.6302 8.74072C13.4791 8.8666 14.265 9.26218 14.8719 9.86903C15.4787 10.4759 15.8743 11.2618 16.0002 12.1107Z" stroke="#00A5A0" stroke-width="2" stroke-linecap="round" stroke-linejoin="round"/>
<path d="M17.5 7.24072H17.51" stroke="#00A5A0" stroke-width="2" stroke-linecap="round" stroke-linejoin="round"/>
</svg>
