<svg width="24" height="25" viewBox="0 0 24 25" fill="none" xmlns="http://www.w3.org/2000/svg">
<path d="M16 8.74072C17.5913 8.74072 19.1174 9.37286 20.2426 10.4981C21.3679 11.6233 22 13.1494 22 14.7407V21.7407H18V14.7407C18 14.2103 17.7893 13.7016 17.4142 13.3265C17.0391 12.9514 16.5304 12.7407 16 12.7407C15.4696 12.7407 14.9609 12.9514 14.5858 13.3265C14.2107 13.7016 14 14.2103 14 14.7407V21.7407H10V14.7407C10 13.1494 10.6321 11.6233 11.7574 10.4981C12.8826 9.37286 14.4087 8.74072 16 8.74072V8.74072Z" stroke="#00A5A0" stroke-width="2" stroke-linecap="round" stroke-linejoin="round"/>
<path d="M6 9.74072H2V21.7407H6V9.74072Z" stroke="#00A5A0" stroke-width="2" stroke-linecap="round" stroke-linejoin="round"/>
<path d="M4 6.74072C5.10457 6.74072 6 5.84529 6 4.74072C6 3.63615 5.10457 2.74072 4 2.74072C2.89543 2.74072 2 3.63615 2 4.74072C2 5.84529 2.89543 6.74072 4 6.74072Z" stroke="#00A5A0" stroke-width="2" stroke-linecap="round" stroke-linejoin="round"/>
</svg>
