<svg width="24" height="25" viewBox="0 0 24 25" fill="none" xmlns="http://www.w3.org/2000/svg">
<path d="M22.5401 7.16072C22.4213 6.68613 22.1794 6.25129 21.8387 5.90013C21.4981 5.54896 21.0708 5.29391 20.6001 5.16072C18.8801 4.74072 12.0001 4.74072 12.0001 4.74072C12.0001 4.74072 5.12008 4.74072 3.40008 5.20072C2.92933 5.33391 2.50206 5.58896 2.16143 5.94013C1.8208 6.29129 1.57887 6.72613 1.46008 7.20072C1.1453 8.94628 0.991319 10.717 1.00008 12.4907C0.988863 14.2778 1.14285 16.062 1.46008 17.8207C1.59104 18.2806 1.83839 18.6989 2.17823 19.0352C2.51806 19.3715 2.9389 19.6145 3.40008 19.7407C5.12008 20.2007 12.0001 20.2007 12.0001 20.2007C12.0001 20.2007 18.8801 20.2007 20.6001 19.7407C21.0708 19.6075 21.4981 19.3525 21.8387 19.0013C22.1794 18.6502 22.4213 18.2153 22.5401 17.7407C22.8524 16.0083 23.0064 14.2511 23.0001 12.4907C23.0113 10.7037 22.8573 8.91942 22.5401 7.16072V7.16072Z" stroke="#00A5A0" stroke-width="2" stroke-linecap="round" stroke-linejoin="round"/>
<path d="M9.75 15.7607L15.5 12.4907L9.75 9.2207V15.7607Z" stroke="#00A5A0" stroke-width="2" stroke-linecap="round" stroke-linejoin="round"/>
</svg>
